<svg xmlns="http://www.w3.org/2000/svg" x="0px" y="0px" width="100" height="100" viewBox="0 0 24 24">
<path d="M 6.25 3 C 4.4700377 3 3 4.4700377 3 6.25 L 3 17.75 C 3 19.529962 4.4700377 21 6.25 21 L 17.75 21 C 19.529962 21 21 19.529962 21 17.75 L 21 6.25 C 21 4.4700377 19.529962 3 17.75 3 L 6.25 3 z M 6.25 5.5 L 17.75 5.5 C 18.180038 5.5 18.5 5.8199623 18.5 6.25 L 18.5 17.75 C 18.5 18.180038 18.180038 18.5 17.75 18.5 L 6.25 18.5 C 5.8199623 18.5 5.5 18.180038 5.5 17.75 L 5.5 6.25 C 5.5 5.8199623 5.8199623 5.5 6.25 5.5 z M 8.1855469 6.7851562 C 7.4445469 6.7851563 7 7.2293594 7 7.8183594 C 7 8.4113594 7.444375 8.8574219 8.109375 8.8574219 C 8.850375 8.8574219 9.2910156 8.4113594 9.2910156 7.8183594 C 9.2910156 7.2303594 8.8505469 6.7851562 8.1855469 6.7851562 z M 7.0625 9.9628906 L 7.0625 16 L 9.2363281 16 L 9.2363281 9.9628906 L 7.0625 9.9628906 z M 11.033203 9.9628906 L 11.033203 16 L 13.207031 16 L 13.207031 12.697266 C 13.207031 11.718266 13.908141 11.574219 14.119141 11.574219 C 14.330141 11.574219 14.892578 11.785266 14.892578 12.697266 L 14.892578 16 L 17 16 L 17 12.697266 C 17 10.806266 16.154516 9.9628906 15.103516 9.9628906 C 14.052516 9.9628906 13.490031 10.312641 13.207031 10.806641 L 13.207031 9.9628906 L 11.033203 9.9628906 z"></path>
</svg>